<svg xmlns="http://www.w3.org/2000/svg" width="249.878" height="49.808" viewBox="0 0 249.878 49.808">
  <g id="Group_87" data-name="Group 87" transform="translate(-270.105 -178.176)">
    <path id="Path_1" data-name="Path 1" d="M50.2,42.7l4.455,2.062a24.909,24.909,0,0,1-37.552,9.407q-.992-.748-1.906-1.589a24.58,24.58,0,0,1-1.734-1.763l3.479-3.478,3.077-3.076,3.619-3.62a10.7,10.7,0,0,0,1.713,1.784,10.572,10.572,0,0,0,16.963-5.55H16.632c-.019-.108-.036-.215-.05-.324a15.748,15.748,0,0,1,0-4.619A15.585,15.585,0,0,1,20.339,23.9a15.646,15.646,0,0,1,21.733-1.683l3.077-3.076a19.985,19.985,0,0,0-7.17-3.981h0a19.993,19.993,0,0,0-22.805,29.8L11.634,48.5A24.9,24.9,0,0,1,46.3,13.827a25.258,25.258,0,0,1,2.324,1.835,25.274,25.274,0,0,1,3.352,3.64l-3.514,3.514L41.6,29.681a10.5,10.5,0,0,0-1.363-2.133,10.582,10.582,0,0,0-4.465-3.189,10.607,10.607,0,0,0-6.783-.208h0A10.6,10.6,0,0,0,22.311,30.2a10.285,10.285,0,0,0-.354.983v0c-.076.249-.143.5-.2.756h25.8a15.778,15.778,0,0,1,.065,4.166c-.029.261-.067.52-.111.777a15.465,15.465,0,0,1-1.258,4.027,15.661,15.661,0,0,1-22.5,6.623L20.621,50.66A20,20,0,0,0,50.2,42.7Z" transform="translate(262.936 168.814)" fill="#c1031b"/>
    <text id="stop_cyberbullying" data-name="stop cyberbullying" transform="translate(321.983 212.475)" fill="#243b53" font-size="25" font-family="AbsolutPro-Medium, Absolut Pro reduced" font-weight="500"><tspan x="0" y="0">Stop Cyberbullying</tspan></text>
  </g>
</svg>
